<?xml version="1.0" encoding="UTF-8" standalone="no"?>
<!DOCTYPE svg PUBLIC "-//W3C//DTD SVG 1.1//EN"
 "http://www.w3.org/Graphics/SVG/1.1/DTD/svg11.dtd">
<!-- Generated by graphviz version 2.40.1 (20161225.0304)
 -->
<!-- Title: models_diagram Pages: 1 -->
<svg width="348pt" height="204pt"
 viewBox="0.00 0.00 348.00 204.00" xmlns="http://www.w3.org/2000/svg" xmlns:xlink="http://www.w3.org/1999/xlink">
<g id="graph0" class="graph" transform="scale(1 1) rotate(0) translate(36 168)">
<title>models_diagram</title>
<polygon fill="#ffffff" stroke="transparent" points="-36,36 -36,-168 312,-168 312,36 -36,36"/>
<!-- User -->
<g id="node1" class="node">
<title>User</title>
<polygon fill="#add8e6" stroke="transparent" points=".5,-99 .5,-121 83.5,-121 83.5,-99 .5,-99"/>
<polygon fill="none" stroke="#000000" points=".5,-99 .5,-121 83.5,-121 83.5,-99 .5,-99"/>
<text text-anchor="start" x="32.562" y="-108" font-family="Times,serif" font-weight="bold" font-size="10.00" fill="#000000">User</text>
<polygon fill="none" stroke="#000000" points=".5,-77 .5,-99 83.5,-99 83.5,-77 .5,-77"/>
<text text-anchor="start" x="5.5" y="-86" font-family="Times,serif" text-decoration="underline" font-size="10.00" fill="#000000">id</text>
<text text-anchor="start" x="13.279" y="-86" font-family="Times,serif" font-size="10.00" fill="#000000">: NUMBER</text>
<polygon fill="none" stroke="#000000" points=".5,-55 .5,-77 83.5,-77 83.5,-55 .5,-55"/>
<text text-anchor="start" x="5.5" y="-63" font-family="Times,serif" font-size="10.00" fill="#000000">name: STRING</text>
<polygon fill="none" stroke="#000000" points=".5,-33 .5,-55 83.5,-55 83.5,-33 .5,-33"/>
<text text-anchor="start" x="5.5" y="-41" font-family="Times,serif" font-size="10.00" fill="#000000">createdAt: DATE</text>
<polygon fill="none" stroke="#000000" points=".5,-11 .5,-33 83.5,-33 83.5,-11 .5,-11"/>
<text text-anchor="start" x="5.205" y="-19" font-family="Times,serif" font-size="10.00" fill="#000000">updatedAt: DATE</text>
</g>
<!-- Post -->
<g id="node2" class="node">
<title>Post</title>
<polygon fill="#add8e6" stroke="transparent" points="193.5,-110 193.5,-132 276.5,-132 276.5,-110 193.5,-110"/>
<polygon fill="none" stroke="#000000" points="193.5,-110 193.5,-132 276.5,-132 276.5,-110 193.5,-110"/>
<text text-anchor="start" x="226.3865" y="-119" font-family="Times,serif" font-weight="bold" font-size="10.00" fill="#000000">Post</text>
<polygon fill="none" stroke="#000000" points="193.5,-88 193.5,-110 276.5,-110 276.5,-88 193.5,-88"/>
<text text-anchor="start" x="198.5" y="-97" font-family="Times,serif" text-decoration="underline" font-size="10.00" fill="#000000">id</text>
<text text-anchor="start" x="206.279" y="-97" font-family="Times,serif" font-size="10.00" fill="#000000">: NUMBER</text>
<polygon fill="none" stroke="#000000" points="193.5,-66 193.5,-88 276.5,-88 276.5,-66 193.5,-66"/>
<text text-anchor="start" x="198.5" y="-74" font-family="Times,serif" font-size="10.00" fill="#000000">text: STRING</text>
<polygon fill="none" stroke="#000000" points="193.5,-44 193.5,-66 276.5,-66 276.5,-44 193.5,-44"/>
<text text-anchor="start" x="198.4805" y="-53" font-family="Times,serif" font-style="italic" text-decoration="underline" font-size="10.00" fill="#000000">userId</text>
<text text-anchor="start" x="223.4665" y="-53" font-family="Times,serif" font-size="10.00" fill="#000000">: NUMBER</text>
<polygon fill="none" stroke="#000000" points="193.5,-22 193.5,-44 276.5,-44 276.5,-22 193.5,-22"/>
<text text-anchor="start" x="198.5" y="-30" font-family="Times,serif" font-size="10.00" fill="#000000">createdAt: DATE</text>
<polygon fill="none" stroke="#000000" points="193.5,0 193.5,-22 276.5,-22 276.5,0 193.5,0"/>
<text text-anchor="start" x="198.205" y="-8" font-family="Times,serif" font-size="10.00" fill="#000000">updatedAt: DATE</text>
</g>
<!-- Post&#45;&gt;User -->
<g id="edge1" class="edge">
<title>Post&#45;&gt;User</title>
<path fill="none" stroke="#000000" stroke-width=".75" d="M186.4147,-66C154.722,-66 113.6264,-66 83.2964,-66"/>
<polygon fill="#000000" stroke="#000000" stroke-width=".75" points="186.6219,-66.0001 192.6219,-68.7 189.6219,-66 192.6219,-66 192.6219,-66 192.6219,-66 189.6219,-66 192.6218,-63.3 186.6219,-66.0001 186.6219,-66.0001"/>
</g>
</g>
</svg>
